<svg xmlns="http://www.w3.org/2000/svg" width="242" height="137" viewBox="0 0 242 137" fill="none"><path d="M0 73.6831H18.4176L28.6519 22.6939H10.232L0 73.6831ZM11.2467 16.6123H29.7414L32.7809 1.35661H14.2934L11.2467 16.6123ZM25.5811 88.0311H44.0011L55.2551 32.9424H69.0688L71.1056 22.6939H57.557L58.0704 20.3883C58.8369 16.0426 60.3723 11.1634 67.2779 11.1634C71.3755 11.1634 75.2104 11.4193 79.0453 13.2131L81.0941 2.45269C76.8203 0.942263 72.3234 0.16205 67.7913 0.144653C52.9532 0.144653 42.7236 8.85773 38.8839 22.6939H32.4892L30.4428 32.9424H36.8375L25.5811 88.0311Z" fill="#EA1D2C"></path><path d="M83.9069 74.7092C105.651 74.7092 120.744 54.9774 120.744 38.8356C120.744 26.7933 109.744 21.6678 99.0006 21.6678C75.2031 21.6678 62.1631 42.9471 62.1631 57.5413C62.1631 69.5837 73.4195 74.7092 83.9069 74.7092ZM142.238 74.7092C163.981 74.7092 179.075 54.9774 179.075 38.8356C179.075 26.7933 167.819 21.6678 157.073 21.6678C133.283 21.6678 120.238 42.935 120.238 57.5413C120.238 69.5837 131.75 74.7092 142.238 74.7092ZM209.005 73.6831H227.167L242 1.18036H223.582L219.232 22.7035L211.557 21.9358C193.651 21.9358 177.279 44.9944 177.279 61.3945C177.279 68.0555 181.618 74.7188 189.047 74.7188C199.534 74.7188 206.953 69.5933 210.017 64.4679H211.039L209.005 73.6831ZM152.209 111.862C137.913 123.727 119.551 129.52 101.047 128.004C76.7434 126.466 59.3478 107.76 56.2794 88.0311H57.3014C62.9296 100.344 76.4879 111.862 93.1169 113.654C109.989 115.703 130.21 108.019 141.208 97.5119L128.93 88.0311H166.023L157.828 127.492L152.455 112.118L152.209 111.862Z" fill="#EA1D2C"></path></svg>