<svg xmlns="http://www.w3.org/2000/svg" width="120" height="120" viewBox="0 0 120 120" fill="none"><rect width="120" height="120" rx="60" fill="url(#paint0_linear_23_12)"></rect><path d="M41.9167 44.7504C43.5413 45.4002 44.9033 45.8101 46.0691 46.0687L55.7253 55.725C54.6322 56.8189 53.9558 58.3297 53.9558 59.9984C53.9558 63.3374 56.6627 66.0442 60.0017 66.0443C61.6704 66.0443 63.1812 65.3679 64.2751 64.2748L73.9451 73.9457C72.6418 73.6836 71.072 73.4857 69.3035 73.4857C65.9074 73.4857 62.8581 74.1562 60.5925 75.2142C57.9003 76.4716 54.4363 77.2054 50.7 77.2054C48.6143 77.2054 45.7533 77.1946 40.8806 75.2455L40.0037 74.8949V43.9847L41.9167 44.7504ZM69.3035 42.7904C72.2476 42.7904 74.7036 43.2804 76.4304 43.7738C77.2946 44.0207 77.9794 44.2692 78.4548 44.4594C78.6926 44.5544 78.8784 44.6359 79.0085 44.6947L79.9998 45.184V73.4232L66.0232 59.4457C65.7606 56.5476 63.4525 54.2396 60.5544 53.9769L52.9851 46.4076C55.4588 46.1814 57.6678 45.5962 59.4119 44.7816C62.104 43.5243 65.5673 42.7904 69.3035 42.7904ZM45.3992 62.7758L46.78 62.976C47.4193 63.0685 48.0746 63.1392 48.7429 63.1859L50.1345 63.2836L50.3298 60.4994L48.9373 60.4027C48.337 60.3607 47.7505 60.2968 47.1804 60.2142L45.7996 60.015L45.3992 62.7758ZM69.6746 59.4974L71.0662 59.5941C71.6666 59.6361 72.2538 59.6991 72.824 59.7816L74.2048 59.9818L74.6052 57.2201L73.2244 57.0209C72.5851 56.9283 71.9297 56.8577 71.2615 56.8109L69.8689 56.7133L69.6746 59.4974Z" fill="white"></path><path d="M77.3655 79.9964L40 42.6309L42.6309 40L79.9964 77.3655L77.3655 79.9964Z" fill="white"></path><defs><linearGradient id="paint0_linear_23_12" x1="10" y1="11" x2="100" y2="116.5" gradientUnits="userSpaceOnUse"><stop stop-color="#FF1820"></stop><stop offset="1" stop-color="#990E13"></stop></linearGradient></defs></svg>