<svg xmlns="http://www.w3.org/2000/svg" width="120" height="120" viewBox="0 0 120 120" fill="none"><rect width="120" height="120" rx="60" fill="url(#paint0_linear_21_100)"></rect><path d="M46.9768 50.29C46.9768 45.696 50.7407 42 55.3489 42C59.957 42 63.721 45.696 63.721 50.29C63.721 54.884 59.957 58.58 55.3489 58.58C50.7407 58.58 46.9768 54.884 46.9768 50.29Z" fill="white"></path><path d="M40 76.8837C40 68.4819 46.8875 61.699 55.3489 61.699C63.8102 61.699 70.6977 68.4819 70.6977 76.8837V78.2791H40V76.8837Z" fill="white"></path><path fill-rule="evenodd" clip-rule="evenodd" d="M72.5582 60.9104L77.3688 65.7207L79.9999 63.0896L75.1893 58.2793L79.9999 53.4687L77.3688 50.8376L72.5582 55.6482L67.7473 50.8373L65.1162 53.4684L69.9271 58.2793L65.1162 63.0905L67.7473 65.7216L72.5582 60.9104Z" fill="white"></path><defs><linearGradient id="paint0_linear_21_100" x1="10" y1="11" x2="100" y2="116.5" gradientUnits="userSpaceOnUse"><stop stop-color="#FF1820"></stop><stop offset="1" stop-color="#990E13"></stop></linearGradient></defs></svg>