<svg xmlns="http://www.w3.org/2000/svg" width="184" height="161" viewBox="0 0 184 161" fill="none"><g clip-path="url(#clip0_23_121)"><path d="M163.866 40.3693H15.621C12.0987 40.3693 9.24329 43.2279 9.24329 46.7543V154.507C9.24329 158.033 12.0987 160.892 15.621 160.892H163.866C167.388 160.892 170.243 158.033 170.243 154.507V46.7543C170.243 43.2279 167.388 40.3693 163.866 40.3693Z" fill="#4989F5"></path><path d="M162.005 39.4638H17.3036C12.8212 39.4638 9.33313 74.1937 9.33313 78.6813L88.5759 160.892H162.005C166.501 160.88 170.143 157.234 170.155 152.733V47.6217C170.142 43.121 166.5 39.4761 162.005 39.4638Z" fill="url(#paint0_linear_23_121)"></path><path d="M46.0052 60.5528H92.0053V0.109558H52.8931L46.0052 60.5528Z" fill="#3C4BA6"></path><path d="M138.005 60.5528H92.0052V0.109558H131.117L138.005 60.5528ZM170.243 11.5673L170.3 11.7733C170.287 11.7006 170.259 11.6331 170.243 11.5673Z" fill="#7BABF7"></path><path d="M170.3 11.7716L170.243 11.5656C168.785 4.87984 162.874 0.112177 156.039 0.107849H131.117L138 60.5528H184L170.3 11.7716Z" fill="#3F51B5"></path><path d="M13.7672 11.5673L13.7101 11.7733C13.7239 11.7006 13.7516 11.6331 13.7672 11.5673Z" fill="#7BABF7"></path><path d="M13.7083 11.7716L13.7654 11.5656C15.2238 4.87984 21.1346 0.112177 27.9701 0.107849H52.8931L46 60.5528H0L13.7083 11.7716Z" fill="#7BABF7"></path><path fill-rule="evenodd" clip-rule="evenodd" d="M46.083 60.5372C46.083 73.2471 35.7912 83.5506 23.0959 83.5506C10.4006 83.5506 0.108887 73.2471 0.108887 60.5372H46.083Z" fill="#709BE0"></path><path fill-rule="evenodd" clip-rule="evenodd" d="M92.0571 60.5372C92.0571 73.2471 81.7653 83.5506 69.07 83.5506C56.3747 83.5506 46.083 73.2471 46.083 60.5372H92.0571Z" fill="#3C4BA6"></path><path fill-rule="evenodd" clip-rule="evenodd" d="M138.031 60.5372C138.031 73.2471 127.739 83.5506 115.044 83.5506C102.349 83.5506 92.0571 73.2471 92.0571 60.5372H138.031Z" fill="#709BE0"></path><path fill-rule="evenodd" clip-rule="evenodd" d="M184 60.5372C184 73.2471 173.708 83.5506 161.013 83.5506C148.318 83.5506 138.026 73.2471 138.026 60.5372H184Z" fill="#3C4BA6"></path><path d="M161.014 122.887C160.933 121.791 160.798 120.79 160.606 119.512H135.531C135.531 123.023 135.531 126.855 135.517 130.368H150.043C149.734 132.005 149.106 133.565 148.193 134.958C147.281 136.351 146.102 137.55 144.725 138.486C144.725 138.486 144.725 138.425 144.715 138.423C142.937 139.592 140.934 140.375 138.835 140.721C136.731 141.106 134.574 141.097 132.473 140.693C130.34 140.251 128.32 139.375 126.54 138.119C123.911 136.253 121.884 133.659 120.707 130.657C120.617 130.423 120.534 130.188 120.449 129.949V129.923L120.472 129.905C119.329 126.547 119.326 122.905 120.463 119.545C121.264 117.188 122.582 115.041 124.321 113.261C128.4 109.036 134.494 107.448 140.113 109.144C142.268 109.805 144.236 110.965 145.86 112.53L150.761 107.623C151.625 106.749 152.523 105.903 153.355 104.999C150.87 102.678 147.953 100.87 144.77 99.6768C138.978 97.5742 132.642 97.5186 126.815 99.5192C126.612 99.5885 126.41 99.6607 126.209 99.7356C119.922 102.102 114.75 106.743 111.714 112.741C110.642 114.864 109.862 117.123 109.394 119.455C106.618 133.266 115.035 146.861 128.625 150.515C133.068 151.706 137.791 151.676 142.268 150.658C146.336 149.739 150.097 147.782 153.187 144.978C156.41 142.009 158.721 138.053 159.931 133.851C160.943 130.29 161.31 126.577 161.014 122.887Z" fill="white"></path></g><defs><linearGradient id="paint0_linear_23_121" x1="9.33313" y1="56423" x2="171122" y2="56423" gradientUnits="userSpaceOnUse"><stop offset="0.03" stop-color="#4079D8"></stop><stop offset="1" stop-color="#4989F5"></stop></linearGradient><clipPath id="clip0_23_121"><rect width="184" height="161" fill="white"></rect></clipPath></defs></svg>