<svg xmlns="http://www.w3.org/2000/svg" width="120" height="120" viewBox="0 0 120 120" fill="none"><rect width="120" height="120" rx="60" fill="url(#paint0_linear_23_24)"></rect><path d="M74.411 74.417V78.6045C74.411 79.3751 73.7861 80 73.0155 80H46.9696C46.199 80 45.5741 79.3751 45.5741 78.6045V45.5791L74.411 74.417ZM57.2089 71.6279V74.4189H62.7909V71.6279H57.2089ZM55.2167 46.5117H64.7635L66.6239 40H73.0155C73.7861 40 74.411 40.6249 74.411 41.3955V67.8389L46.6171 40.0449C46.7296 40.0157 46.8479 40 46.9696 40H53.3563L55.2167 46.5117ZM62.6581 43.7207H57.3212L56.2587 40H63.7216L62.6581 43.7207Z" fill="white"></path><path d="M77.3689 80L40 42.6311L42.6311 40L80 77.3689L77.3689 80Z" fill="white"></path><defs><linearGradient id="paint0_linear_23_24" x1="10" y1="11" x2="100" y2="116.5" gradientUnits="userSpaceOnUse"><stop stop-color="#FF1820"></stop><stop offset="1" stop-color="#990E13"></stop></linearGradient></defs></svg>