<svg xmlns="http://www.w3.org/2000/svg" width="120" height="120" viewBox="0 0 120 120" fill="none"><rect width="120" height="120" rx="60" fill="url(#paint0_linear_23_78)"></rect><path fill-rule="evenodd" clip-rule="evenodd" d="M51.7949 65.7436C51.7949 61.212 55.4685 57.5385 60.0001 57.5385C64.5316 57.5385 68.2052 61.212 68.2052 65.7436C68.2052 70.2751 64.5316 73.9487 60.0001 73.9487C55.4685 73.9487 51.7949 70.2751 51.7949 65.7436ZM55.3636 63.1549C54.9351 63.9207 54.6908 64.8036 54.6908 65.7436C54.6908 68.6758 57.0679 71.0528 60.0001 71.0528C60.94 71.0528 61.8229 70.8085 62.5887 70.38L55.3636 63.1549ZM57.4114 61.1072L64.6365 68.3323C65.065 67.5664 65.3093 66.6835 65.3093 65.7436C65.3093 62.8114 62.9322 60.4344 60.0001 60.4344C59.0601 60.4344 58.1772 60.6786 57.4114 61.1072Z" fill="white"></path><path fill-rule="evenodd" clip-rule="evenodd" d="M50.7692 38V41.0769H69.2308V38H73.3333V41.0769H78.4615C79.3112 41.0769 80 41.7657 80 42.6154V79.0769C80 80.1815 79.1046 81.0769 78 81.0769H42C40.8954 81.0769 40 80.1815 40 79.0769V42.6154C40 41.7657 40.6888 41.0769 41.5385 41.0769H46.6667V38H50.7692ZM76 77.0769V54.4103H44V77.0769H76Z" fill="white"></path><defs><linearGradient id="paint0_linear_23_78" x1="10" y1="11" x2="100" y2="116.5" gradientUnits="userSpaceOnUse"><stop stop-color="#FF1820"></stop><stop offset="1" stop-color="#990E13"></stop></linearGradient></defs></svg>