<svg xmlns="http://www.w3.org/2000/svg" id="Camada_2" data-name="Camada 2" viewBox="0 0 630.38 220.14"><defs><style>      .cls-1 {        fill: #ed1e24;      }      .cls-2 {        fill: #fff;      }    </style></defs><g id="Layer_1" data-name="Layer 1"><g><g><path class="cls-2" d="M254.78,88.32V22.31h39.58v7.09h-31.59v22.3h28.62v7.09h-28.62v29.52h-7.99Z"></path><path class="cls-2" d="M320.26,89.35c-4.47,0-8.39-1.06-11.75-3.19-3.36-2.13-5.98-5.1-7.86-8.93-1.88-3.82-2.82-8.29-2.82-13.41s.94-9.66,2.82-13.51c1.88-3.85,4.5-6.83,7.86-8.96,3.36-2.13,7.28-3.19,11.75-3.19s8.38,1.06,11.75,3.19c3.36,2.13,5.98,5.11,7.86,8.96,1.88,3.85,2.82,8.35,2.82,13.51s-.94,9.58-2.82,13.41-4.5,6.8-7.86,8.93c-3.36,2.13-7.28,3.19-11.75,3.19ZM320.26,82.52c3.39,0,6.19-.87,8.38-2.61,2.19-1.74,3.81-4.03,4.87-6.87,1.05-2.84,1.58-5.91,1.58-9.22s-.53-6.39-1.58-9.25c-1.05-2.86-2.68-5.17-4.87-6.93-2.19-1.76-4.98-2.64-8.38-2.64s-6.19.88-8.38,2.64c-2.19,1.76-3.81,4.07-4.87,6.93-1.05,2.86-1.58,5.94-1.58,9.25s.53,6.38,1.58,9.22c1.05,2.84,2.68,5.12,4.87,6.87,2.19,1.74,4.98,2.61,8.38,2.61Z"></path><path class="cls-2" d="M371.39,89.35c-4.47,0-8.39-1.06-11.75-3.19-3.36-2.13-5.98-5.1-7.86-8.93-1.88-3.82-2.82-8.29-2.82-13.41s.94-9.66,2.82-13.51c1.88-3.85,4.5-6.83,7.86-8.96,3.36-2.13,7.28-3.19,11.75-3.19s8.38,1.06,11.75,3.19c3.36,2.13,5.98,5.11,7.86,8.96,1.88,3.85,2.82,8.35,2.82,13.51s-.94,9.58-2.82,13.41c-1.88,3.82-4.5,6.8-7.86,8.93-3.36,2.13-7.28,3.19-11.75,3.19ZM371.39,82.52c3.39,0,6.19-.87,8.38-2.61,2.19-1.74,3.81-4.03,4.87-6.87,1.05-2.84,1.58-5.91,1.58-9.22s-.53-6.39-1.58-9.25-2.68-5.17-4.87-6.93c-2.19-1.76-4.98-2.64-8.38-2.64s-6.19.88-8.38,2.64c-2.19,1.76-3.81,4.07-4.87,6.93s-1.58,5.94-1.58,9.25.53,6.38,1.58,9.22c1.05,2.84,2.68,5.12,4.87,6.87,2.19,1.74,4.98,2.61,8.38,2.61Z"></path><path class="cls-2" d="M421.1,89.35c-4.13,0-7.77-1.05-10.93-3.14-3.16-2.1-5.63-5.06-7.41-8.9-1.78-3.83-2.68-8.37-2.68-13.62s.89-9.71,2.68-13.54c1.78-3.82,4.27-6.78,7.45-8.86,3.18-2.08,6.85-3.13,11.02-3.13,3.22,0,5.77.53,7.65,1.59,1.88,1.06,3.32,2.27,4.32,3.61,1,1.34,1.78,2.44,2.34,3.3h.64v-24.37h7.61v66.01h-7.35v-7.61h-.9c-.56.9-1.35,2.04-2.39,3.4-1.03,1.36-2.5,2.58-4.42,3.64-1.91,1.06-4.46,1.6-7.64,1.6ZM422.13,82.52c3.05,0,5.63-.8,7.74-2.4,2.11-1.6,3.71-3.82,4.8-6.67,1.1-2.85,1.64-6.14,1.64-9.88s-.54-6.93-1.61-9.72c-1.07-2.78-2.66-4.95-4.77-6.51-2.11-1.56-4.71-2.34-7.8-2.34s-5.9.82-8.04,2.47c-2.14,1.64-3.74,3.87-4.8,6.67-1.06,2.8-1.59,5.95-1.59,9.43s.54,6.72,1.63,9.59c1.08,2.87,2.7,5.15,4.83,6.83,2.14,1.69,4.8,2.53,7.98,2.53Z"></path><g><polygon class="cls-2" points="289.47 160.69 288.67 160.69 268.42 111.26 253.29 111.26 253.29 179.48 265.15 179.48 265.15 132.51 265.79 132.51 284.64 179.28 293.5 179.28 312.35 132.61 312.98 132.61 312.98 179.48 324.84 179.48 324.84 111.26 309.72 111.26 289.47 160.69"></polygon><path class="cls-2" d="M372.56,133.85c-2.17-2.11-4.65-3.67-7.46-4.68-2.81-1.01-5.79-1.51-8.95-1.51-4.88,0-9.14,1.12-12.76,3.35-3.62,2.23-6.43,5.34-8.44,9.33-2.01,3.99-3.01,8.61-3.01,13.87s1,10,3,13.94c2,3.94,4.86,6.98,8.58,9.13,3.72,2.14,8.14,3.21,13.27,3.21,3.97,0,7.51-.6,10.59-1.82,3.09-1.21,5.62-2.92,7.61-5.13,1.99-2.21,3.34-4.8,4.05-7.78l-11.26-1.27c-.53,1.44-1.32,2.65-2.36,3.63-1.04.98-2.28,1.71-3.7,2.22-1.42.5-3.01.75-4.76.75-2.62,0-4.91-.56-6.86-1.68-1.95-1.12-3.48-2.74-4.56-4.86-1.05-2.05-1.58-4.5-1.62-7.34h35.63v-3.7c0-4.49-.62-8.35-1.87-11.61-1.24-3.25-2.95-5.94-5.11-8.04ZM343.95,149.07c.12-2,.61-3.87,1.53-5.58,1.03-1.92,2.48-3.47,4.35-4.66,1.87-1.19,4.03-1.78,6.5-1.78,2.31,0,4.33.52,6.08,1.57,1.74,1.04,3.1,2.47,4.08,4.28s1.48,3.87,1.5,6.18h-24.03Z"></path><polygon class="cls-2" points="370.45 106.37 358.66 106.37 351.2 121.59 360.22 121.59 370.45 106.37"></polygon><path class="cls-2" d="M412.24,169.85c-.63.11-1.33.17-2.08.17-1,0-1.91-.16-2.73-.47-.82-.31-1.48-.89-1.98-1.75-.5-.85-.75-2.09-.75-3.71v-26.45h10.09v-9.33h-10.09v-12.26h-12.06v12.26h-7.26v9.33h7.26v28.45c-.02,3.2.67,5.86,2.08,8,1.41,2.13,3.32,3.7,5.75,4.71,2.42,1.01,5.14,1.47,8.16,1.38,1.71-.04,3.16-.2,4.35-.47,1.19-.27,2.1-.51,2.75-.73l-2.03-9.43c-.33.09-.82.19-1.45.3Z"></path><path class="cls-2" d="M448.75,127.58c-2.93,0-5.54.81-7.81,2.41-2.28,1.61-3.88,3.89-4.81,6.85h-.53v-8.53h-11.69v51.16h12.06v-30.08c0-2.18.5-4.1,1.5-5.76,1-1.67,2.37-2.97,4.11-3.91,1.74-.94,3.71-1.42,5.91-1.42,1.02,0,2.08.07,3.18.22,1.1.15,1.9.31,2.41.48v-11.09c-.56-.11-1.25-.19-2.08-.25s-1.58-.08-2.25-.08Z"></path><rect class="cls-2" x="460.14" y="128.32" width="12.06" height="51.16"></rect><path class="cls-2" d="M466.2,107.96c-1.91,0-3.55.64-4.93,1.92-1.38,1.28-2.07,2.83-2.07,4.65s.69,3.34,2.07,4.61c1.38,1.28,3.02,1.92,4.93,1.92s3.58-.64,4.95-1.92c1.37-1.28,2.05-2.81,2.05-4.61s-.68-3.37-2.05-4.65c-1.37-1.28-3.01-1.92-4.95-1.92Z"></path><path class="cls-2" d="M498.92,139.36c1.86-1.32,4.03-1.98,6.49-1.98,2.91,0,5.23.83,6.98,2.48,1.74,1.65,2.85,3.71,3.31,6.18h11.53c-.27-3.69-1.36-6.91-3.26-9.68-1.91-2.76-4.47-4.91-7.68-6.43-3.21-1.52-6.89-2.28-11.04-2.28-5,0-9.32,1.12-12.97,3.35-3.65,2.23-6.48,5.34-8.48,9.33-2,3.99-3,8.58-3,13.77s.98,9.74,2.95,13.71c1.97,3.96,4.77,7.07,8.43,9.31,3.65,2.24,8.03,3.36,13.14,3.36,4.29,0,8.02-.78,11.19-2.35,3.18-1.57,5.68-3.74,7.53-6.53,1.84-2.79,2.91-5.99,3.2-9.61h-11.53c-.36,1.84-1.01,3.41-1.97,4.7-.95,1.29-2.14,2.27-3.55,2.95-1.41.68-3,1.02-4.78,1.02-2.51,0-4.69-.67-6.54-2.02-1.85-1.34-3.29-3.26-4.31-5.76-1.02-2.5-1.53-5.49-1.53-8.98s.52-6.4,1.55-8.86c1.03-2.46,2.48-4.36,4.35-5.68Z"></path><path class="cls-2" d="M572.25,131.36c-2.02-1.32-4.25-2.27-6.7-2.85-2.44-.58-4.9-.87-7.36-.87-3.58,0-6.84.53-9.79,1.58-2.95,1.05-5.45,2.63-7.49,4.73-2.04,2.1-3.51,4.7-4.4,7.81l11.26,1.6c.6-1.75,1.76-3.28,3.48-4.56,1.72-1.29,4.06-1.93,7.01-1.93,2.8,0,4.94.69,6.43,2.07,1.49,1.38,2.23,3.32,2.23,5.83v.2c0,1.16-.43,2-1.28,2.55-.86.54-2.22.94-4.08,1.2s-4.3.54-7.29.85c-2.49.27-4.89.69-7.21,1.28-2.32.59-4.4,1.45-6.25,2.58-1.84,1.13-3.3,2.64-4.36,4.53-1.07,1.89-1.6,4.27-1.6,7.16,0,3.35.75,6.17,2.25,8.46,1.5,2.29,3.54,4.01,6.13,5.18,2.59,1.17,5.5,1.75,8.74,1.75,2.66,0,4.99-.37,6.98-1.12,1.99-.74,3.64-1.73,4.96-2.96,1.32-1.23,2.35-2.56,3.08-3.98h.4v7.03h11.59v-34.24c0-3.4-.62-6.23-1.85-8.49s-2.86-4.06-4.88-5.38ZM566.95,161.13c0,1.89-.48,3.63-1.45,5.23-.97,1.6-2.34,2.88-4.11,3.85-1.78.97-3.88,1.45-6.3,1.45s-4.57-.57-6.2-1.7-2.43-2.81-2.43-5.03c0-1.55.41-2.83,1.23-3.81.82-.99,1.94-1.76,3.36-2.32,1.42-.55,3.03-.95,4.83-1.2.8-.11,1.74-.24,2.83-.4s2.19-.33,3.3-.53c1.11-.2,2.12-.43,3.02-.7.9-.27,1.54-.55,1.91-.87v6.03Z"></path><path class="cls-2" d="M626.8,155.26c-2.36-2.27-5.97-3.92-10.81-4.96l-8.73-1.87c-2.6-.6-4.46-1.36-5.58-2.3s-1.67-2.14-1.65-3.63c-.02-1.73.82-3.14,2.51-4.23,1.7-1.09,3.8-1.63,6.31-1.63,1.87,0,3.44.3,4.73.9,1.29.6,2.32,1.39,3.08,2.36.77.98,1.3,2.02,1.62,3.13l10.99-1.2c-.82-4.35-2.96-7.81-6.41-10.36-3.45-2.55-8.18-3.83-14.17-3.83-4.09,0-7.69.64-10.81,1.92-3.12,1.28-5.55,3.08-7.29,5.4-1.74,2.32-2.6,5.06-2.58,8.21-.02,3.73,1.14,6.81,3.5,9.24,2.35,2.43,5.98,4.16,10.89,5.18l8.73,1.83c2.35.51,4.09,1.24,5.21,2.2,1.12.95,1.68,2.17,1.68,3.63,0,1.73-.87,3.19-2.61,4.36-1.74,1.18-4.05,1.77-6.91,1.77s-5.03-.59-6.76-1.77c-1.73-1.18-2.86-2.92-3.4-5.23l-11.76,1.13c.73,4.71,3.01,8.38,6.83,11.01,3.82,2.63,8.86,3.95,15.12,3.95,4.26,0,8.04-.69,11.33-2.07,3.29-1.38,5.86-3.29,7.71-5.75,1.85-2.45,2.79-5.29,2.81-8.51-.02-3.66-1.22-6.63-3.58-8.89Z"></path></g></g><path class="cls-1" d="M110.07,0C49.28,0,0,49.28,0,110.07s49.28,110.07,110.07,110.07,110.07-49.28,110.07-110.07S170.86,0,110.07,0ZM100.79,75.12l-18.8,30.98,20.41,37.08,15.9,27.65-18.29,31.21-54.71-96.08,37.76-62.29h73.33l18.41,31.44h-74.03ZM173.7,137.54h-65.68l-17.2-31.25.11-.19h65.52l17.25,31.44Z"></path></g></g></svg>